<svg xmlns="http://www.w3.org/2000/svg" width="68.372" height="66.662" viewBox="0 0 68.372 66.662">
  <path id="Icon_simple-adobexd" data-name="Icon simple-adobexd" d="M56.264.45H12.107A12.1,12.1,0,0,0,0,12.557V55A12.1,12.1,0,0,0,12.107,67.112H56.264A12.1,12.1,0,0,0,68.372,55V12.557A12.1,12.1,0,0,0,56.264.45Zm9.23,53.444a10.321,10.321,0,0,1-10.313,10.37H13.19A10.359,10.359,0,0,1,2.849,53.922V13.64A10.359,10.359,0,0,1,13.19,3.3H55.153A10.341,10.341,0,0,1,65.494,13.64ZM27.035,31.645l7.977,15.327c.142.228.057.456-.171.456H29.884a.559.559,0,0,1-.6-.37C27.463,43.3,25.611,39.536,23.7,35.49h-.057c-1.709,3.817-3.59,7.834-5.413,11.595a.547.547,0,0,1-.513.313h-4.7c-.285,0-.313-.228-.171-.4l7.806-14.871L13.1,17.087a.23.23,0,0,1,.171-.4h4.9a.449.449,0,0,1,.513.313c1.795,3.76,3.618,7.635,5.327,11.424h.057c1.652-3.76,3.476-7.663,5.242-11.4.142-.228.228-.37.513-.37h4.587c.228,0,.313.171.171.4Zm9.373,4.644c0-6.638,4.416-11.823,11.424-11.823a12.633,12.633,0,0,1,1.481.057V16.973a.285.285,0,0,1,.285-.285h4.5c.228,0,.285.085.285.228V43.068a20.291,20.291,0,0,0,.142,2.792c0,.171-.057.228-.228.313a16.969,16.969,0,0,1-7.293,1.652C40.824,47.854,36.408,44.037,36.408,36.288ZM49.313,29a4.308,4.308,0,0,0-1.652-.285c-3.59,0-6.1,2.763-6.1,7.35,0,5.242,2.564,7.35,5.783,7.35a5.375,5.375,0,0,0,1.966-.313V29Z" transform="translate(0 -0.45)" fill="#fff"/>
</svg>
