<svg xmlns="http://www.w3.org/2000/svg" width="68.372" height="66.662" viewBox="0 0 68.372 66.662">
  <path id="Icon_simple-adobephotoshop" data-name="Icon simple-adobephotoshop" d="M0,.45V67.112H68.372V.45ZM2.849,3.3H65.523V64.263H2.849ZM16.523,16.062c0-.191.4-.33.638-.33,1.835-.094,4.524-.142,7.344-.142,7.9,0,10.968,4.33,10.968,9.874,0,7.236-5.248,10.341-11.686,10.341-1.083,0-1.453-.048-2.208-.048V46.7c0,.236-.094.33-.328.33h-4.4c-.236,0-.328-.085-.328-.322V16.062ZM21.58,31.194c.655.046,1.174.046,2.308.046,3.333,0,6.467-1.174,6.467-5.686,0-3.618-2.239-5.453-6.045-5.453-1.128,0-2.208.046-2.726.094V31.2ZM46.1,27.81c-2.256,0-3.008,1.128-3.008,2.068,0,1.034.513,1.738,3.524,3.29,4.467,2.165,5.874,4.23,5.874,7.284,0,4.558-3.476,7.008-8.176,7.008a12.447,12.447,0,0,1-5.84-1.225c-.185-.094-.228-.234-.228-.47V41.587c0-.285.137-.379.325-.239A10.5,10.5,0,0,0,44.3,43.04c2.256,0,3.2-.94,3.2-2.211,0-1.034-.655-1.929-3.524-3.433-4.045-1.937-5.738-3.9-5.738-7.2,0-3.666,2.866-6.723,7.848-6.723a13.278,13.278,0,0,1,5.111.8.621.621,0,0,1,.285.564v3.9c0,.236-.142.379-.427.285A10.2,10.2,0,0,0,46.088,27.8Z" transform="translate(0 -0.45)" fill="#fff"/>
</svg>
