<svg id="Group_20" data-name="Group 20" xmlns="http://www.w3.org/2000/svg" width="82.384" height="80.151" viewBox="0 0 82.384 80.151">
  <path id="Path_6" data-name="Path 6" d="M1543.734,1847.451h0a5.45,5.45,0,0,0,1.572.123c4.119-.062,15.008-.145,18.673,2.2,4.609,2.945.512,7.553.512,7.553a61.688,61.688,0,0,1-14.979,14.338c-9.858,6.785-2.364,5.42-2.364,5.42s5.564-.3,20.927-13.358,2.689-19.843-4.1-20.483a93.105,93.105,0,0,0-15.558.312,26.093,26.093,0,0,0-4.467.99c-.157.073-1.871.452-1.75,1.678C1542.228,1847.018,1543.734,1847.451,1543.734,1847.451Z" transform="translate(-1513.958 -1843.02)" fill="#fff"/>
  <path id="Path_7" data-name="Path 7" d="M1458.629,1976.636s13.442-.256,19.2,1.024,6.017,3.969,6.017,3.969,1.536,2.688-3.457,8.962-16.643,13.186-19.715,13.826,0-6.785,0-6.785,5.121-9.474,6.017-11.01a26.111,26.111,0,0,0,1.664-3.713s.638-2.942-2.545-1.086-15.139,22.046-15.139,22.046-3.438,5.652-4.021,7.692.7,2.331.7,2.331.7.991,9.323-1.806,29.316-15.953,34.671-25.464-10.256-14.219-10.256-14.219-9.032-1.573-22.2,1.224c-1.658.432-2.131,1.508-2.066,2.044C1457.171,1976.813,1458.629,1976.636,1458.629,1976.636Z" transform="translate(-1446.502 -1933.911)" fill="#fff"/>
  <path id="Path_8" data-name="Path 8" d="M1593.644,1950.252s8.257,9.924,10.227,12.348a34.485,34.485,0,0,1,3.106,4.469,3.511,3.511,0,0,1-.833,4.772c-2.651,1.969-23.1,1.667-23.1,1.667a17.366,17.366,0,0,0-3.409.606c-1.364.454-1.288,2.727,2.576,3.106s5.909,1.212,21.211,1.288,13.787-9.621,13.787-9.621-.53-3.788-5.075-8.863-11.742-14.317-11.742-14.317-2.121-4.545,2.273-6.06,11.392-.379,16.666-.682c2.594-.149,4.812-1.95,0-3.257-7.727-2.045-19.962-1.026-21.686-.474s-6.3,2.14-6.948,6.383S1593.644,1950.252,1593.644,1950.252Z" transform="translate(-1539.778 -1907.495)" fill="#fff"/>
</svg>
