<svg xmlns="http://www.w3.org/2000/svg" width="68.372" height="67.124" viewBox="0 0 68.372 67.124">
  <path id="Icon_simple-microsoftexcel" data-name="Icon simple-microsoftexcel" d="M67.1,8.542h-22.9v4.239h6.752v6.706H44.194v2.137h6.752v6.715H44.194v2.2h6.752v6.35H44.194v2.544h6.752v6.364H44.194v2.544h6.752v6.4H44.194v4.669H67.1c.362-.108.664-.536.906-1.276a6.247,6.247,0,0,0,.368-1.812v-47c0-.365-.125-.584-.368-.661A3.134,3.134,0,0,0,67.1,8.542ZM64.127,54.732H53.139v-6.4H64.127v6.4Zm0-8.94H53.139V39.426H64.127Zm0-8.911H53.139V30.56H64.127v6.322Zm0-8.546H53.139V21.629H64.127v6.706Zm0-8.885H53.139V12.784H64.127V19.45ZM0,7.485V60.476l40.339,6.977V.329L0,7.508ZM23.91,47.57q-.231-.624-2.159-5.307c-1.279-3.122-2.051-4.94-2.276-5.458H19.4L15.076,47.1l-5.783-.39,6.86-12.82L9.871,21.074l5.9-.311,3.9,10.031h.077l4.4-10.486,6.094-.385L22.981,33.8,30.46,47.949l-6.549-.385Z" transform="translate(0 -0.329)" fill="#fff"/>
</svg>
