<svg xmlns="http://www.w3.org/2000/svg" width="68.373" height="68.016" viewBox="0 0 68.373 68.016">
  <path id="Icon_simple-visualstudiocode" data-name="Icon simple-visualstudiocode" d="M65.951,7.286,51.877.515a4.256,4.256,0,0,0-4.857.826L20.07,25.926,8.333,17.015a2.846,2.846,0,0,0-3.635.162L.932,20.6a2.849,2.849,0,0,0,0,4.213L11.108,34.1.929,43.389a2.849,2.849,0,0,0,0,4.213L4.7,51.024a2.846,2.846,0,0,0,3.635.162l11.737-8.911,26.95,24.585a4.25,4.25,0,0,0,4.854.826l14.079-6.772a4.273,4.273,0,0,0,2.416-3.852V11.138A4.273,4.273,0,0,0,65.95,7.286ZM51.291,49.623,30.842,34.1l20.449-15.52Z" transform="translate(0.001 -0.093)" fill="#fff"/>
</svg>
